<svg width="40.5" height="34.5" xmlns="http://www.w3.org/2000/svg" xmlns:svg="http://www.w3.org/2000/svg" xmlns:xlink="http://www.w3.org/1999/xlink" >
 <style>.st0{fill:#0080ff}.st1{clip-path:url(#SVGID_4_)}</style>
 <title>Group 3</title>
 <defs>
  <path d="m8.7,24c-1.1,0 -2.1,-0.9 -2.1,-2s0.9,-2 2.1,-2s2.1,0.9 2.1,2s-1,2 -2.1,2zm25.8,-10.9c-0.2,-1.6 -1.2,-2.9 -2.5,-3.9l-0.5,-0.4l-0.4,0.5c-0.8,0.9 -1.1,2.5 -1,3.7c0.1,0.9 0.4,1.8 0.9,2.5c-0.4,0.2 -0.9,0.4 -1.3,0.6c-0.9,0.3 -1.8,0.4 -2.7,0.4l-25.9,0l-0.1,0.6c-0.2,1.9 0.1,3.9 0.9,5.7l0.4,0.7l0,0.1c2.4,4 6.7,5.8 11.4,5.8c9,0 16.4,-3.9 19.9,-12.3c2.3,0.1 4.6,-0.5 5.7,-2.7l0.3,-0.5l-0.5,-0.3c-1.3,-0.8 -3.1,-0.9 -4.6,-0.5zm-12.9,-1.6l-3.9,0l0,3.9l3.9,0l0,-3.9zm0,-4.9l-3.9,0l0,3.9l3.9,0l0,-3.9zm0,-5l-3.9,0l0,3.9l3.9,0l0,-3.9zm4.8,9.9l-3.9,0l0,3.9l3.9,0l0,-3.9zm-14.5,0l-3.9,0l0,3.9l3.9,0l0,-3.9zm4.9,0l-3.9,0l0,3.9l3.9,0l0,-3.9zm-9.7,0l-3.9,0l0,3.9l3.9,0l0,-3.9zm9.7,-4.9l-3.9,0l0,3.9l3.9,0l0,-3.9zm-4.9,0l-3.9,0l0,3.9l3.9,0l0,-3.9z" id="SVGID_2_"/>
 </defs>
 <clipPath id="SVGID_4_">
  <use id="svg_1" xlink:href="#SVGID_2_"/>
 </clipPath>
 <g>
  <title>Layer 1</title>
  <path d="m8.7,24c-1.1,0 -2.1,-0.9 -2.1,-2s0.9,-2 2.1,-2s2.1,0.9 2.1,2s-1,2 -2.1,2zm25.8,-10.9c-0.2,-1.6 -1.2,-2.9 -2.5,-3.9l-0.5,-0.4l-0.4,0.5c-0.8,0.9 -1.1,2.5 -1,3.7c0.1,0.9 0.4,1.8 0.9,2.5c-0.4,0.2 -0.9,0.4 -1.3,0.6c-0.9,0.3 -1.8,0.4 -2.7,0.4l-25.9,0l-0.1,0.6c-0.2,1.9 0.1,3.9 0.9,5.7l0.4,0.7l0,0.1c2.4,4 6.7,5.8 11.4,5.8c9,0 16.4,-3.9 19.9,-12.3c2.3,0.1 4.6,-0.5 5.7,-2.7l0.3,-0.5l-0.5,-0.3c-1.3,-0.8 -3.1,-0.9 -4.6,-0.5zm-12.9,-1.6l-3.9,0l0,3.9l3.9,0l0,-3.9zm0,-4.9l-3.9,0l0,3.9l3.9,0l0,-3.9zm0,-5l-3.9,0l0,3.9l3.9,0l0,-3.9zm4.8,9.9l-3.9,0l0,3.9l3.9,0l0,-3.9zm-14.5,0l-3.9,0l0,3.9l3.9,0l0,-3.9zm4.9,0l-3.9,0l0,3.9l3.9,0l0,-3.9zm-9.7,0l-3.9,0l0,3.9l3.9,0l0,-3.9zm9.7,-4.9l-3.9,0l0,3.9l3.9,0l0,-3.9zm-4.9,0l-3.9,0l0,3.9l3.9,0l0,-3.9z" class="st0" id="SVGID_1_"/>
 </g>
</svg>