<?xml version="1.0" encoding="UTF-8"?>
<svg xmlns="http://www.w3.org/2000/svg" xmlns:xlink="http://www.w3.org/1999/xlink" width="24pt" height="24pt" viewBox="0 0 24 24" version="1.1">
<g id="surface3063972">
<path style="fill-rule:nonzero;fill:#0080ff;fill-opacity:1;stroke-width:3;stroke-linecap:butt;stroke-linejoin:round;stroke:#0080ff;stroke-opacity:1;stroke-miterlimit:10;" d="M 115.463654 14.947375 C 121.48311 19.728379 123.844811 25.978245 123.844811 31.277671 L 123.844811 51.611336 L 140.722329 51.611336 C 147.000997 51.611336 153.394869 54.318651 157.916661 60.078897 C 162.438454 65.867943 165.116968 74.450708 165.116968 86 C 165.116968 97.549292 162.438454 106.132057 157.916661 111.921103 C 153.394869 117.681349 147.000997 120.388664 140.722329 120.388664 L 89.427346 120.388664 L 89.427346 123.844811 L 123.844811 123.844811 L 123.844811 140.722329 C 123.844811 145.877749 121.48311 152.098814 115.463654 156.93742 C 109.444198 161.776026 99.968595 165.116968 86 165.116968 C 72.031405 165.116968 62.555802 161.776026 56.536346 156.93742 C 50.51689 152.098814 48.155189 145.877749 48.155189 140.722329 L 48.155189 120.388664 L 31.277671 120.388664 C 24.999003 120.388664 18.605131 117.681349 14.083339 111.921103 C 9.561546 106.132057 6.883032 97.549292 6.883032 86 C 6.883032 74.450708 9.561546 65.867943 14.083339 60.078897 C 18.605131 54.318651 24.999003 51.611336 31.277671 51.611336 L 82.572654 51.611336 L 82.572654 48.155189 L 48.155189 48.155189 L 48.155189 31.277671 C 48.155189 26.122251 50.51689 19.901186 56.536346 15.06258 C 62.555802 10.223974 72.031405 6.883032 86 6.883032 C 99.939793 6.883032 109.415397 10.137571 115.463654 14.947375 Z M 60.85653 20.419608 C 56.363538 24.019762 55.038682 28.195939 55.038682 31.277671 L 55.038682 41.271696 L 89.427346 41.271696 L 89.427346 58.466028 L 31.277671 58.466028 C 26.928685 58.466028 22.867713 60.194102 19.555572 64.399081 C 16.272232 68.604059 13.766525 75.545155 13.766525 86 C 13.766525 96.454845 16.272232 103.395941 19.555572 107.600919 C 22.867713 111.805898 26.928685 113.533972 31.277671 113.533972 L 48.155189 113.533972 L 48.155189 99.766986 C 48.155189 98.586136 48.241593 97.434087 48.472003 96.310839 C 48.702412 95.216392 49.10563 94.121946 49.566449 93.085102 C 52.187361 86.921639 58.264419 82.572654 65.349521 82.572654 L 106.650479 82.572654 C 112.324321 82.572654 116.961318 77.935657 116.961318 72.233014 L 116.961318 31.277671 C 116.961318 27.994331 115.60766 23.875756 111.14347 20.304404 C 106.708081 16.761853 98.874148 13.766525 86 13.766525 C 73.125852 13.766525 65.32072 16.848256 60.85653 20.419608 Z M 75.689161 30.960857 C 75.689161 34.762619 72.578629 37.84435 68.805668 37.84435 C 65.003906 37.84435 61.922175 34.762619 61.922175 30.960857 C 61.922175 27.159095 65.003906 24.077364 68.805668 24.077364 C 72.578629 24.077364 75.689161 27.159095 75.689161 30.960857 Z M 123.844811 72.233014 C 123.844811 81.679816 116.097281 89.427346 106.650479 89.427346 L 65.349521 89.427346 C 60.366909 89.427346 56.219532 93.027499 55.269092 97.722099 C 55.125086 98.384527 55.038682 99.046955 55.038682 99.766986 L 55.038682 140.722329 C 55.038682 143.804061 56.363538 147.980238 60.85653 151.580392 C 65.32072 155.151744 73.125852 158.233475 86 158.233475 C 98.874148 158.233475 106.67928 155.151744 111.14347 151.580392 C 115.636462 147.980238 116.961318 143.804061 116.961318 140.722329 L 116.961318 130.728304 L 82.572654 130.728304 L 82.572654 113.533972 L 140.722329 113.533972 C 145.071315 113.533972 149.132287 111.805898 152.444428 107.600919 C 155.727768 103.395941 158.233475 96.454845 158.233475 86 C 158.233475 75.545155 155.727768 68.604059 152.444428 64.399081 C 149.132287 60.194102 145.071315 58.466028 140.722329 58.466028 L 123.844811 58.466028 Z M 110.077825 141.039143 C 110.077825 144.840905 106.996094 147.922636 103.194332 147.922636 C 99.421371 147.922636 96.310839 144.840905 96.310839 141.039143 C 96.310839 137.237381 99.421371 134.15565 103.194332 134.15565 C 106.996094 134.15565 110.077825 137.237381 110.077825 141.039143 Z M 110.077825 141.039143 " transform="matrix(0.135628,0,0,0.135628,0.336,0.336)"/>
<path style=" stroke:none;fill-rule:nonzero;fill:#0080ff;fill-opacity:1;" d="M 12 1.269531 C 10.105469 1.269531 8.820312 1.722656 8.003906 2.378906 C 7.1875 3.035156 6.867188 3.878906 6.867188 4.578125 L 6.867188 6.867188 L 11.535156 6.867188 L 11.535156 7.335938 L 4.578125 7.335938 C 3.726562 7.335938 2.859375 7.703125 2.246094 8.484375 C 1.632812 9.269531 1.269531 10.433594 1.269531 12 C 1.269531 13.566406 1.632812 14.730469 2.246094 15.515625 C 2.859375 16.296875 3.726562 16.664062 4.578125 16.664062 L 6.867188 16.664062 L 6.867188 19.421875 C 6.867188 20.121094 7.1875 20.964844 8.003906 21.621094 C 8.820312 22.277344 10.105469 22.730469 12 22.730469 C 13.894531 22.730469 15.179688 22.277344 15.996094 21.621094 C 16.8125 20.964844 17.132812 20.121094 17.132812 19.421875 L 17.132812 17.132812 L 12.464844 17.132812 L 12.464844 16.664062 L 19.421875 16.664062 C 20.273438 16.664062 21.140625 16.296875 21.753906 15.515625 C 22.367188 14.730469 22.730469 13.566406 22.730469 12 C 22.730469 10.433594 22.367188 9.269531 21.753906 8.484375 C 21.140625 7.703125 20.273438 7.335938 19.421875 7.335938 L 17.132812 7.335938 L 17.132812 4.578125 C 17.132812 3.859375 16.8125 3.011719 15.996094 2.363281 C 15.175781 1.710938 13.890625 1.269531 12 1.269531 Z M 12 2.203125 C 13.746094 2.203125 14.808594 2.609375 15.410156 3.089844 C 16.015625 3.574219 16.199219 4.132812 16.199219 4.578125 L 16.199219 10.132812 C 16.199219 10.90625 15.570312 11.535156 14.800781 11.535156 L 9.199219 11.535156 C 8.238281 11.535156 7.414062 12.125 7.058594 12.960938 C 6.996094 13.101562 6.941406 13.25 6.910156 13.398438 C 6.878906 13.550781 6.867188 13.707031 6.867188 13.867188 L 6.867188 15.734375 L 4.578125 15.734375 C 3.988281 15.734375 3.4375 15.5 2.988281 14.929688 C 2.542969 14.359375 2.203125 13.417969 2.203125 12 C 2.203125 10.582031 2.542969 9.640625 2.988281 9.070312 C 3.4375 8.5 3.988281 8.265625 4.578125 8.265625 L 12.464844 8.265625 L 12.464844 5.933594 L 7.800781 5.933594 L 7.800781 4.578125 C 7.800781 4.160156 7.980469 3.59375 8.589844 3.105469 C 9.195312 2.621094 10.253906 2.203125 12 2.203125 Z M 9.667969 3.601562 C 9.152344 3.601562 8.734375 4.019531 8.734375 4.535156 C 8.734375 5.050781 9.152344 5.46875 9.667969 5.46875 C 10.179688 5.46875 10.601562 5.050781 10.601562 4.535156 C 10.601562 4.019531 10.179688 3.601562 9.667969 3.601562 Z M 17.132812 8.265625 L 19.421875 8.265625 C 20.011719 8.265625 20.5625 8.5 21.011719 9.070312 C 21.457031 9.640625 21.796875 10.582031 21.796875 12 C 21.796875 13.417969 21.457031 14.359375 21.011719 14.929688 C 20.5625 15.5 20.011719 15.734375 19.421875 15.734375 L 11.535156 15.734375 L 11.535156 18.066406 L 16.199219 18.066406 L 16.199219 19.421875 C 16.199219 19.839844 16.019531 20.40625 15.410156 20.894531 C 14.804688 21.378906 13.746094 21.796875 12 21.796875 C 10.253906 21.796875 9.195312 21.378906 8.589844 20.894531 C 7.980469 20.40625 7.800781 19.839844 7.800781 19.421875 L 7.800781 13.867188 C 7.800781 13.769531 7.8125 13.679688 7.832031 13.589844 C 7.960938 12.953125 8.523438 12.464844 9.199219 12.464844 L 14.800781 12.464844 C 16.082031 12.464844 17.132812 11.414062 17.132812 10.132812 Z M 14.332031 18.53125 C 13.820312 18.53125 13.398438 18.949219 13.398438 19.464844 C 13.398438 19.980469 13.820312 20.398438 14.332031 20.398438 C 14.847656 20.398438 15.265625 19.980469 15.265625 19.464844 C 15.265625 18.949219 14.847656 18.53125 14.332031 18.53125 Z M 14.332031 18.53125 "/>
</g>
</svg>
